<svg id="svg" xmlns="http://www.w3.org/2000/svg" xmlns:xlink="http://www.w3.org/1999/xlink" width="400" height="359.81735159817356" viewBox="0, 0, 400,359.81735159817356"><g id="svgg"><path id="path0" d="M273.338 5.498 C 270.508 6.626,269.909 11.120,271.180 21.701 C 271.768 26.592,272.444 32.854,272.683 35.616 C 272.922 38.379,274.169 46.804,275.455 54.338 C 279.108 75.739,279.227 76.468,281.126 89.055 C 282.112 95.592,283.423 102.784,284.038 105.037 C 284.799 107.819,285.128 116.600,285.065 132.420 C 285.014 145.228,285.005 156.530,285.046 157.534 C 285.087 158.539,285.127 160.183,285.134 161.187 C 285.156 164.141,283.955 180.125,283.488 183.105 C 283.252 184.612,282.637 189.543,282.123 194.064 C 281.608 198.584,280.591 204.044,279.863 206.196 C 279.135 208.349,278.537 210.814,278.535 211.676 C 278.533 212.537,277.481 216.119,276.197 219.635 C 274.914 223.151,273.616 226.849,273.313 227.854 C 273.010 228.858,271.390 230.988,269.714 232.587 C 268.038 234.186,266.667 235.958,266.667 236.526 C 266.667 237.093,265.947 237.485,265.068 237.395 C 264.189 237.306,263.265 237.311,263.014 237.408 C 256.727 239.818,245.179 233.571,238.458 224.125 C 237.237 222.409,235.893 221.005,235.471 221.005 C 235.049 221.005,234.703 220.183,234.703 219.178 C 234.703 218.163,234.094 217.352,233.333 217.352 C 232.572 217.352,231.963 216.540,231.963 215.525 C 231.963 214.521,231.553 213.699,231.050 213.699 C 230.548 213.699,230.137 212.671,230.137 211.416 C 230.137 210.160,229.719 209.132,229.209 209.132 C 228.699 209.132,227.621 207.591,226.814 205.708 C 226.008 203.824,224.987 201.569,224.546 200.697 C 223.588 198.803,221.362 192.734,219.769 187.671 C 218.996 185.216,218.741 180.125,218.991 172.146 C 219.828 145.424,218.095 136.608,213.007 141.696 C 212.206 142.497,211.634 142.492,210.648 141.673 C 208.399 139.807,207.977 142.865,207.643 163.441 C 207.468 174.223,206.900 185.114,206.379 187.641 C 203.996 199.221,203.124 202.549,202.160 203.742 C 201.590 204.446,200.819 206.461,200.446 208.219 C 199.474 212.803,189.578 231.980,185.602 236.986 C 185.203 237.489,183.680 239.479,182.218 241.410 C 177.656 247.437,169.659 252.103,164.745 251.606 C 159.790 251.105,155.076 248.093,155.897 245.954 C 156.233 245.080,155.796 243.998,154.820 243.285 C 153.493 242.314,153.297 241.350,153.794 238.241 C 154.193 235.746,154.046 234.174,153.376 233.760 C 152.624 233.295,152.677 232.583,153.569 231.145 C 154.545 229.571,154.561 229.023,153.648 228.454 C 152.789 227.919,152.713 226.614,153.344 223.233 C 153.877 220.385,153.862 218.335,153.305 217.664 C 152.734 216.976,152.752 216.397,153.357 216.024 C 153.895 215.691,154.085 213.688,153.804 211.306 C 153.537 209.029,153.683 206.684,154.129 206.094 C 154.576 205.505,154.993 201.640,155.056 197.504 C 155.118 193.369,155.580 189.220,156.080 188.285 C 156.581 187.350,157.210 184.569,157.479 182.105 C 158.263 174.906,159.048 171.689,160.020 171.689 C 160.525 171.689,160.682 170.709,160.375 169.482 C 160.070 168.268,160.128 167.138,160.504 166.971 C 161.742 166.420,165.428 158.029,164.846 157.087 C 164.532 156.579,164.876 156.164,165.610 156.164 C 166.344 156.164,167.351 155.034,167.847 153.653 C 168.762 151.104,174.029 145.205,175.389 145.205 C 175.798 145.205,176.361 144.486,176.640 143.607 C 176.919 142.727,178.488 141.437,180.126 140.739 C 181.765 140.041,184.132 138.527,185.388 137.373 C 186.644 136.220,188.826 134.840,190.238 134.306 C 191.649 133.773,192.579 132.973,192.304 132.528 C 192.029 132.083,193.032 131.210,194.532 130.589 C 196.033 129.967,197.260 129.106,197.260 128.674 C 197.260 128.242,198.288 127.631,199.543 127.316 C 200.799 127.000,201.826 126.352,201.826 125.874 C 201.826 125.397,202.191 125.232,202.636 125.507 C 203.843 126.252,205.765 123.521,205.154 121.929 C 204.862 121.170,205.022 120.548,205.508 120.548 C 207.385 120.548,206.355 116.921,204.338 116.425 C 198.388 114.963,183.159 118.037,181.479 121.039 C 181.068 121.773,180.207 122.374,179.566 122.374 C 178.162 122.374,174.429 126.189,174.429 127.623 C 174.429 128.185,173.670 128.885,172.741 129.180 C 171.813 129.474,170.550 130.820,169.935 132.170 C 169.320 133.520,168.025 135.179,167.057 135.857 C 166.089 136.535,165.297 137.584,165.297 138.189 C 165.297 139.634,158.446 146.660,155.122 148.623 C 153.686 149.471,152.511 150.475,152.511 150.854 C 152.511 151.232,150.215 153.011,147.407 154.807 C 144.600 156.603,141.415 158.992,140.330 160.116 C 137.732 162.806,126.259 171.689,125.382 171.689 C 124.344 171.689,117.994 178.876,118.545 179.428 C 118.809 179.692,118.135 179.909,117.047 179.909 C 115.677 179.909,115.068 180.471,115.068 181.735 C 115.068 182.740,114.620 183.562,114.071 183.562 C 113.522 183.562,112.029 184.384,110.751 185.388 C 109.474 186.393,108.793 187.216,109.238 187.218 C 109.682 187.220,108.810 187.975,107.299 188.897 C 105.788 189.818,103.404 192.077,102.001 193.916 C 100.598 195.755,98.889 197.260,98.203 197.260 C 97.517 197.260,96.740 197.774,96.476 198.402 C 96.115 199.260,95.774 199.204,95.097 198.174 C 89.106 189.046,81.532 185.181,69.589 185.156 L 63.835 185.145 64.410 182.527 C 64.766 180.907,64.610 179.909,64.000 179.909 C 63.457 179.909,63.014 179.292,63.014 178.539 C 63.014 177.785,63.527 177.272,64.155 177.397 C 64.973 177.561,65.224 176.331,65.040 173.059 C 64.898 170.548,64.782 167.174,64.782 165.561 C 64.782 163.948,64.423 162.407,63.984 162.135 C 63.544 161.864,63.351 160.923,63.553 160.045 C 64.567 155.647,57.883 152.904,50.078 154.516 C 47.147 155.121,44.749 155.963,44.749 156.387 C 44.749 156.811,44.235 157.053,43.607 156.926 C 41.430 156.484,33.177 162.328,25.959 169.423 C 24.414 170.941,22.141 172.845,20.908 173.653 C 19.675 174.461,17.857 176.814,16.867 178.883 C 15.878 180.951,14.320 182.887,13.404 183.185 C 12.484 183.485,11.952 184.280,12.215 184.964 C 12.476 185.645,11.691 187.149,10.470 188.306 C 9.250 189.464,8.244 190.708,8.235 191.071 C 8.226 191.434,7.209 193.900,5.975 196.550 C 0.972 207.294,-0.674 228.273,3.437 228.901 C 4.461 229.057,5.530 228.584,5.811 227.850 C 6.093 227.116,6.882 226.729,7.565 226.991 C 9.239 227.634,11.190 223.428,9.843 222.081 C 9.153 221.390,9.176 220.359,9.923 218.544 C 10.502 217.135,10.906 214.255,10.820 212.144 C 10.733 210.033,11.186 207.676,11.826 206.905 C 12.466 206.134,12.764 204.915,12.489 204.197 C 12.213 203.479,12.537 202.680,13.209 202.422 C 13.880 202.165,14.703 200.336,15.037 198.360 C 15.434 196.008,16.334 194.394,17.639 193.691 C 18.737 193.100,20.390 191.053,21.312 189.142 C 22.235 187.230,24.598 183.959,26.563 181.873 C 28.529 179.786,30.137 177.668,30.137 177.167 C 30.137 176.666,30.753 176.256,31.507 176.256 C 32.260 176.256,32.877 175.692,32.877 175.003 C 32.877 174.313,35.132 172.361,37.888 170.665 C 40.644 168.968,43.109 166.950,43.366 166.181 C 43.622 165.412,44.897 164.694,46.199 164.586 C 47.500 164.479,49.042 164.091,49.625 163.725 C 54.537 160.643,55.396 162.741,54.945 176.712 C 54.864 179.224,54.825 183.128,54.858 185.388 C 54.930 190.307,54.939 190.020,54.496 196.469 L 54.142 201.615 57.622 201.663 C 60.286 201.700,61.232 201.297,61.662 199.942 C 61.971 198.969,62.617 198.174,63.098 198.174 C 63.579 198.174,64.338 197.213,64.784 196.038 C 66.536 191.430,78.658 193.683,83.204 199.461 C 84.227 200.762,85.550 201.826,86.144 201.826 C 88.839 201.826,89.314 208.008,86.837 210.834 C 85.538 212.317,83.741 214.492,82.844 215.669 C 81.947 216.846,79.794 219.658,78.058 221.918 C 76.323 224.178,74.900 226.538,74.895 227.161 C 74.890 227.784,73.653 229.473,72.146 230.913 C 70.639 232.353,69.406 234.211,69.406 235.043 C 69.406 236.560,69.114 237.281,66.340 242.607 C 65.515 244.191,64.838 246.246,64.835 247.173 C 64.831 248.100,64.236 249.996,63.511 251.386 C 62.341 253.627,59.929 265.021,58.728 273.973 C 56.596 289.864,58.286 320.233,61.954 331.963 C 63.803 337.876,66.830 345.205,67.423 345.205 C 67.766 345.205,68.598 346.449,69.271 347.969 C 71.179 352.281,84.423 356.565,88.726 354.262 C 89.682 353.750,92.322 353.193,94.592 353.023 C 96.862 352.853,99.451 352.052,100.345 351.243 C 101.239 350.434,102.470 349.772,103.080 349.772 C 106.701 349.772,115.068 338.270,115.068 333.292 C 115.068 331.858,115.582 330.356,116.210 329.954 C 116.838 329.552,117.424 327.785,117.514 326.027 C 117.603 324.269,117.913 319.338,118.203 315.068 C 118.896 304.861,118.865 303.394,117.559 284.475 C 117.420 282.466,117.681 279.648,118.138 278.212 C 118.683 276.500,118.639 275.399,118.009 275.010 C 117.482 274.684,117.055 272.776,117.060 270.770 C 117.080 263.567,116.225 256.115,115.070 253.425 C 114.423 251.918,113.842 248.581,113.779 246.010 C 113.715 243.438,113.170 240.740,112.567 240.013 C 111.964 239.286,111.368 237.352,111.243 235.715 C 111.119 234.077,110.695 232.539,110.303 232.297 C 109.910 232.054,109.589 230.877,109.589 229.680 C 109.589 228.484,109.178 227.251,108.676 226.941 C 108.174 226.630,107.763 225.373,107.763 224.147 C 107.763 222.921,107.352 221.918,106.849 221.918 C 106.347 221.918,105.936 221.069,105.936 220.031 C 105.936 218.994,105.442 217.247,104.839 216.150 C 104.236 215.053,103.611 213.366,103.451 212.400 C 103.291 211.435,102.737 210.136,102.221 209.514 C 101.575 208.735,101.585 208.194,102.254 207.781 C 102.789 207.450,102.948 206.694,102.608 206.101 C 102.268 205.508,102.308 205.309,102.697 205.659 C 103.085 206.009,105.046 204.217,107.053 201.678 C 109.060 199.138,111.888 196.386,113.337 195.562 C 114.785 194.738,115.973 193.642,115.976 193.125 C 115.982 192.101,119.244 189.041,120.330 189.041 C 120.701 189.041,122.152 187.603,123.555 185.845 C 124.958 184.087,126.547 182.648,127.086 182.648 C 127.625 182.648,129.615 181.005,131.507 178.995 C 133.399 176.986,135.303 175.322,135.738 175.298 C 136.174 175.273,138.174 173.632,140.183 171.651 C 142.192 169.670,144.335 168.047,144.945 168.043 C 145.555 168.039,146.494 167.215,147.032 166.210 C 147.570 165.205,148.611 164.384,149.347 164.384 C 150.083 164.384,150.685 163.986,150.685 163.499 C 150.685 163.012,151.243 162.828,151.924 163.090 C 153.177 163.571,151.249 171.381,149.566 172.643 C 149.201 172.916,148.772 175.387,148.611 178.135 C 148.451 180.882,148.078 183.535,147.783 184.031 C 147.006 185.336,145.843 190.817,145.558 194.521 C 145.422 196.279,145.050 199.566,144.731 201.826 C 143.890 207.787,143.711 243.933,144.521 244.433 C 144.897 244.666,145.205 245.860,145.205 247.086 C 145.205 248.312,145.616 249.315,146.119 249.315 C 146.621 249.315,147.032 250.137,147.032 251.142 C 147.032 252.146,147.415 252.968,147.884 252.968 C 148.352 252.968,148.973 253.716,149.263 254.630 C 151.043 260.240,168.771 262.095,176.877 257.521 C 182.937 254.101,187.159 250.447,188.207 247.717 C 188.641 246.587,189.520 245.659,190.160 245.656 C 190.800 245.652,192.176 244.317,193.218 242.688 C 194.260 241.059,196.635 237.350,198.498 234.446 C 200.360 231.542,202.128 227.946,202.426 226.455 C 202.724 224.964,203.239 223.744,203.570 223.744 C 204.605 223.744,207.306 218.533,207.306 216.536 C 207.306 215.489,208.025 213.793,208.904 212.766 C 209.783 211.740,210.522 210.605,210.547 210.244 C 210.572 209.884,210.941 208.562,211.367 207.306 C 211.793 206.050,212.234 204.201,212.347 203.196 C 212.688 200.159,212.753 200.000,213.657 200.000 C 214.137 200.000,214.799 201.438,215.129 203.196 C 215.459 204.954,216.048 206.393,216.438 206.393 C 216.829 206.393,217.418 207.831,217.748 209.589 C 218.078 211.347,218.640 212.785,218.996 212.785 C 219.353 212.785,220.594 214.853,221.753 217.380 C 222.913 219.908,224.657 222.472,225.629 223.080 C 226.602 223.687,227.398 224.804,227.399 225.562 C 227.400 227.186,238.556 239.269,240.054 239.269 C 240.619 239.269,241.598 240.113,242.230 241.143 C 247.584 249.872,277.626 246.766,277.626 237.483 C 277.626 236.959,277.960 236.530,278.369 236.530 C 279.407 236.530,283.105 229.406,283.105 227.409 C 283.105 226.505,283.729 225.527,284.491 225.234 C 285.339 224.909,285.808 223.719,285.700 222.169 C 285.602 220.775,286.259 218.228,287.159 216.508 C 288.748 213.471,289.297 210.784,289.878 203.196 C 290.032 201.187,290.415 198.927,290.729 198.174 C 291.310 196.781,293.279 182.223,293.168 180.137 C 293.032 177.575,293.100 175.619,293.445 172.146 C 293.645 170.137,293.866 167.363,293.936 165.982 C 294.136 162.063,295.890 163.035,295.890 167.064 C 295.890 169.040,296.320 171.787,296.845 173.168 C 297.370 174.549,297.944 177.350,298.120 179.392 C 298.295 181.434,298.896 184.270,299.455 185.693 C 300.013 187.117,300.255 188.629,299.992 189.055 C 299.729 189.480,299.878 190.053,300.324 190.329 C 301.162 190.847,302.172 194.621,302.849 199.768 C 303.840 207.306,309.035 213.699,314.169 213.699 C 318.751 213.699,320.091 210.981,320.091 201.689 C 320.091 197.747,320.463 194.521,320.918 194.521 C 321.372 194.521,320.978 193.674,320.041 192.638 C 318.907 191.385,318.669 190.546,319.329 190.127 C 319.989 189.708,320.263 184.456,320.148 174.429 C 319.970 158.949,320.992 144.588,322.392 142.901 C 322.830 142.373,322.836 141.386,322.405 140.689 C 321.920 139.903,322.111 138.946,322.914 138.143 C 323.622 137.435,324.277 135.755,324.369 134.410 C 324.462 133.064,324.596 131.142,324.668 130.137 C 324.739 129.132,325.688 126.493,326.776 124.271 C 327.864 122.049,328.595 120.071,328.400 119.876 C 328.205 119.681,329.004 118.487,330.176 117.223 C 331.348 115.959,332.576 113.697,332.905 112.198 C 333.263 110.572,334.391 109.068,335.702 108.471 C 336.911 107.920,337.900 106.976,337.900 106.373 C 337.900 104.940,349.250 94.381,352.719 92.587 C 354.199 91.821,359.001 90.963,363.390 90.678 L 371.371 90.161 374.042 92.945 C 377.693 96.751,378.995 98.420,378.995 99.293 C 378.995 99.700,380.043 101.574,381.322 103.457 C 382.602 105.341,383.389 107.303,383.070 107.819 C 382.752 108.334,382.963 109.325,383.541 110.020 C 384.118 110.716,384.785 113.266,385.022 115.688 C 385.260 118.110,385.696 121.324,385.990 122.831 C 387.376 129.926,386.566 149.830,384.711 154.269 C 383.971 156.038,383.179 158.520,382.950 159.785 C 382.720 161.050,381.942 162.737,381.221 163.534 C 380.499 164.332,379.909 165.637,379.909 166.434 C 379.909 167.232,379.600 168.021,379.224 168.189 C 378.210 168.639,374.429 174.211,374.429 175.255 C 374.429 176.261,365.708 184.018,364.576 184.018 C 364.179 184.018,362.148 185.369,360.063 187.020 C 357.228 189.266,354.477 190.382,349.141 191.454 C 338.578 193.576,335.780 194.223,334.089 194.933 C 332.356 195.661,331.247 197.927,332.014 199.169 C 332.297 199.626,332.093 200.000,331.561 200.000 C 331.029 200.000,330.594 200.358,330.594 200.797 C 330.594 202.249,345.476 202.002,349.096 200.489 C 350.942 199.718,353.493 199.087,354.765 199.087 C 356.037 199.087,357.078 198.676,357.078 198.174 C 357.078 197.671,357.642 197.260,358.332 197.260 C 359.621 197.260,368.131 192.831,368.950 191.734 C 369.201 191.398,370.639 190.480,372.146 189.695 C 373.653 188.910,375.704 187.106,376.705 185.686 C 377.706 184.267,380.069 181.516,381.956 179.573 C 383.844 177.630,385.388 175.473,385.388 174.778 C 385.388 174.084,385.791 173.516,386.284 173.516 C 387.505 173.516,392.694 162.237,392.694 159.581 C 392.694 158.405,393.115 157.022,393.629 156.508 C 395.088 155.049,395.621 151.776,395.767 143.379 C 395.842 139.110,396.232 135.103,396.635 134.475 C 397.038 133.847,397.004 133.333,396.559 133.333 C 396.114 133.333,395.923 132.158,396.134 130.721 C 396.726 126.687,394.808 113.090,393.216 110.037 C 392.433 108.535,391.790 106.560,391.786 105.648 C 391.783 104.736,391.367 103.216,390.861 102.271 C 390.356 101.327,389.855 99.504,389.749 98.222 C 389.643 96.940,389.245 95.890,388.865 95.890 C 388.486 95.890,387.541 94.664,386.765 93.165 C 382.492 84.902,375.504 80.867,366.729 81.596 C 353.086 82.730,346.580 84.494,345.481 87.358 C 345.222 88.033,344.324 88.584,343.485 88.584 C 342.646 88.584,340.939 89.715,339.691 91.096 C 338.444 92.477,335.740 95.050,333.683 96.813 C 331.626 98.576,329.650 100.939,329.293 102.064 C 328.936 103.189,328.309 104.110,327.899 104.110 C 327.489 104.110,326.917 105.016,326.627 106.125 C 326.337 107.233,325.810 107.849,325.455 107.495 C 324.625 106.665,316.098 124.170,315.429 128.078 C 315.149 129.713,314.572 131.872,314.147 132.877 C 313.255 134.982,312.121 140.765,311.819 144.749 C 310.925 156.525,310.493 165.276,310.408 173.288 C 310.328 180.964,310.063 182.648,308.937 182.648 C 307.976 182.648,307.713 182.032,308.058 180.594 C 308.330 179.463,307.986 176.922,307.294 174.946 C 306.602 172.970,306.226 171.047,306.457 170.671 C 306.689 170.296,306.428 169.711,305.877 169.370 C 305.326 169.029,305.121 167.768,305.423 166.567 C 305.724 165.366,305.640 164.384,305.236 164.384 C 304.832 164.384,304.409 162.175,304.296 159.475 C 304.183 156.775,303.483 152.563,302.740 150.114 C 301.997 147.666,301.385 144.737,301.380 143.607 C 301.374 142.477,301.041 141.553,300.640 141.553 C 300.239 141.553,300.078 140.114,300.283 138.356 C 300.489 136.598,300.263 135.160,299.782 135.160 C 299.301 135.160,298.872 133.898,298.828 132.357 C 298.785 130.815,298.314 129.030,297.783 128.390 C 297.252 127.751,296.948 125.088,297.108 122.473 C 297.267 119.858,297.065 117.513,296.658 117.262 C 296.251 117.010,295.943 115.900,295.973 114.795 C 296.003 113.690,295.743 109.087,295.394 104.566 C 295.045 100.046,294.828 93.881,294.910 90.868 C 294.993 87.854,294.553 83.812,293.934 81.886 C 293.031 79.079,293.039 78.013,293.977 76.513 C 294.714 75.332,294.813 74.433,294.245 74.079 C 293.750 73.769,293.448 71.667,293.575 69.406 C 293.701 67.146,293.242 64.178,292.554 62.811 C 291.867 61.445,291.213 57.951,291.101 55.049 C 290.989 52.146,290.626 49.566,290.295 49.315 C 289.964 49.064,289.421 45.982,289.088 42.466 C 288.756 38.950,288.096 35.936,287.623 35.769 C 287.149 35.602,287.010 34.472,287.315 33.258 C 287.637 31.977,287.468 31.050,286.914 31.050 C 286.388 31.050,285.933 30.331,285.903 29.452 C 285.635 21.656,285.080 18.097,283.917 16.705 C 283.165 15.805,282.435 13.698,282.294 12.024 C 281.877 7.063,277.469 3.851,273.338 5.498 M95.529 218.037 C 95.801 218.916,96.421 220.374,96.906 221.278 C 98.775 224.757,102.283 235.491,102.283 237.728 C 102.283 239.019,102.668 240.313,103.138 240.603 C 103.609 240.894,103.997 241.843,104.001 242.712 C 104.016 245.588,104.921 251.151,105.536 252.146 C 105.868 252.684,106.304 255.042,106.503 257.384 C 106.703 259.727,107.086 263.493,107.355 265.753 C 108.606 276.252,109.122 312.034,108.144 320.548 C 107.770 323.813,107.471 327.614,107.482 328.995 C 107.492 330.377,107.175 331.507,106.777 331.507 C 106.380 331.507,105.568 332.842,104.974 334.475 C 102.260 341.933,88.728 347.885,81.279 344.896 C 80.525 344.594,78.786 343.936,77.415 343.435 C 75.910 342.886,75.106 342.041,75.389 341.305 C 75.646 340.635,75.143 338.464,74.271 336.481 C 73.398 334.499,72.620 332.165,72.541 331.295 C 72.462 330.425,72.004 329.192,71.524 328.555 C 71.044 327.918,70.578 326.230,70.489 324.804 C 70.400 323.378,70.029 321.734,69.666 321.151 C 69.303 320.568,69.128 319.145,69.278 317.988 C 69.427 316.831,69.049 315.282,68.438 314.545 C 67.049 312.872,66.646 289.980,67.844 280.822 C 68.304 277.306,68.783 272.374,68.909 269.863 C 69.035 267.352,69.855 262.626,70.732 259.361 C 71.609 256.096,72.469 252.698,72.644 251.811 C 72.818 250.923,73.599 249.558,74.380 248.777 C 75.160 247.997,75.799 246.925,75.799 246.396 C 75.799 244.999,80.609 234.345,81.532 233.699 C 81.961 233.397,82.404 232.532,82.515 231.776 C 82.626 231.020,84.430 228.455,86.524 226.076 C 88.619 223.697,90.861 220.555,91.508 219.094 C 92.823 216.123,94.778 215.609,95.529 218.037 " stroke="none" fill="white" fill-rule="evenodd"></path></g></svg>