<svg id="svg" xmlns="http://www.w3.org/2000/svg" xmlns:xlink="http://www.w3.org/1999/xlink" width="400" height="532.2033898305084" viewBox="0, 0, 400,532.2033898305084"><g id="svgg"><path id="path0" d="M274.512 8.550 C 273.149 9.412,270.043 10.129,267.610 10.144 C 264.907 10.159,260.739 12.477,256.896 16.102 C 253.437 19.364,249.898 22.034,249.032 22.034 C 248.166 22.034,247.458 23.060,247.458 24.314 C 247.458 25.567,245.932 27.974,244.068 29.661 C 242.203 31.348,240.678 33.755,240.678 35.008 C 240.678 36.262,239.870 37.288,238.883 37.288 C 237.896 37.288,237.528 38.001,238.067 38.871 C 238.605 39.742,237.921 43.365,236.547 46.922 C 230.319 63.047,223.657 132.164,228.325 132.219 C 229.060 132.228,229.823 138.236,230.021 145.570 C 230.219 152.905,231.585 162.241,233.055 166.317 C 236.184 174.991,237.094 178.389,238.443 186.441 C 238.989 189.703,241.182 196.186,243.315 200.847 C 245.449 205.508,248.073 212.665,249.147 216.750 C 250.220 220.835,251.749 225.411,252.544 226.919 C 254.319 230.286,256.281 235.626,256.929 238.858 C 257.196 240.187,258.517 243.619,259.864 246.485 C 269.410 266.795,275.719 279.133,277.538 281.053 C 278.706 282.285,279.661 285.152,279.661 287.424 C 279.661 289.696,281.949 294.713,284.746 298.574 C 287.542 302.435,289.831 307.386,289.831 309.576 C 289.831 311.767,290.564 313.559,291.460 313.559 C 292.356 313.559,293.866 316.443,294.815 319.968 C 295.764 323.492,297.676 327.878,299.064 329.713 C 301.971 333.559,302.481 339.992,300.000 341.525 C 299.068 342.102,298.302 343.863,298.299 345.439 C 298.295 347.015,296.010 352.881,293.220 358.475 C 290.431 364.068,288.145 369.352,288.142 370.218 C 288.134 372.270,269.660 409.753,265.946 415.254 C 264.372 417.585,263.071 419.873,263.055 420.339 C 262.959 423.093,258.070 431.694,255.535 433.571 C 253.889 434.789,252.542 436.886,252.542 438.232 C 252.542 439.577,251.780 440.678,250.847 440.678 C 249.915 440.678,249.136 441.631,249.115 442.797 C 249.031 447.485,206.960 491.525,202.565 491.525 C 201.908 491.525,199.346 492.945,196.872 494.680 C 194.397 496.415,189.322 498.803,185.593 499.986 C 181.864 501.169,178.029 502.754,177.069 503.508 C 174.238 505.733,147.255 506.727,138.983 504.910 C 134.788 503.989,129.449 503.019,127.119 502.753 C 120.956 502.051,105.287 496.614,104.157 494.786 C 103.625 493.925,102.018 493.220,100.585 493.220 C 99.153 493.220,95.870 491.717,93.291 489.881 C 90.711 488.044,88.114 487.027,87.521 487.621 C 86.927 488.215,86.441 487.811,86.441 486.723 C 86.441 485.636,85.352 484.746,84.021 484.746 C 82.691 484.746,80.102 482.839,78.269 480.508 C 76.436 478.178,74.178 476.271,73.252 476.271 C 72.326 476.271,69.792 474.040,67.621 471.313 C 65.450 468.586,63.074 466.725,62.342 467.178 C 61.610 467.630,60.329 466.207,59.495 464.015 C 58.662 461.824,56.802 459.052,55.362 457.857 C 53.922 456.662,53.159 454.602,53.666 453.280 C 54.174 451.958,53.366 450.407,51.871 449.833 C 50.376 449.259,49.153 446.965,49.153 444.734 C 49.153 442.503,48.457 440.678,47.607 440.678 C 44.860 440.678,46.957 431.672,50.224 429.438 C 51.965 428.248,54.915 425.797,56.780 423.992 C 58.644 422.187,61.695 420.251,63.559 419.688 C 65.424 419.126,69.948 415.992,73.613 412.723 C 77.278 409.454,81.095 406.780,82.095 406.780 C 84.780 406.780,110.169 381.580,110.169 378.915 C 110.169 377.660,111.314 376.195,112.712 375.658 C 114.110 375.122,115.254 373.621,115.254 372.325 C 115.254 371.028,117.161 368.534,119.492 366.784 C 121.822 365.034,123.729 362.046,123.729 360.144 C 123.729 358.243,124.916 354.991,126.367 352.920 C 127.818 350.848,128.390 349.129,127.638 349.101 C 126.886 349.073,127.539 348.310,129.088 347.405 C 130.638 346.501,132.420 342.714,133.050 338.991 C 133.679 335.268,134.927 331.768,135.823 331.214 C 136.824 330.595,136.687 329.284,135.468 327.815 C 134.004 326.051,133.979 324.827,135.373 323.147 C 142.172 314.955,133.985 292.335,123.353 289.937 C 110.321 286.998,79.653 291.862,75.237 297.568 C 74.202 298.906,71.730 300.000,69.743 300.000 C 67.756 300.000,65.178 301.525,64.013 303.390 C 62.849 305.254,61.121 306.780,60.173 306.780 C 59.225 306.780,56.167 310.329,53.377 314.668 C 46.192 325.842,44.705 328.582,40.646 338.136 C 38.666 342.797,36.337 347.935,35.472 349.553 C 34.606 351.172,33.898 354.750,33.898 357.504 C 33.898 360.258,33.207 362.939,32.363 363.461 C 31.518 363.983,31.226 365.939,31.715 367.807 C 32.204 369.676,31.724 372.264,30.649 373.559 C 29.574 374.855,28.812 376.567,28.955 377.364 C 29.098 378.161,29.125 388.529,29.014 400.402 L 28.814 421.991 21.610 426.503 C 6.942 435.691,9.754 449.435,24.891 442.538 C 30.839 439.828,33.898 442.738,33.898 451.108 C 33.898 455.304,34.791 458.076,36.334 458.668 C 37.673 459.182,38.349 460.696,37.836 462.033 C 37.300 463.430,38.788 465.946,41.333 467.948 C 43.769 469.865,45.763 472.521,45.763 473.852 C 45.763 475.182,46.525 476.271,47.458 476.271 C 48.390 476.271,49.166 477.225,49.183 478.390 C 49.217 480.764,61.527 491.525,64.209 491.525 C 65.157 491.525,66.543 492.573,67.289 493.854 C 69.077 496.926,85.261 506.780,88.518 506.780 C 89.921 506.780,92.887 508.192,95.110 509.918 C 97.334 511.643,101.059 513.509,103.390 514.063 C 105.720 514.617,111.822 516.281,116.949 517.760 C 126.778 520.597,142.599 522.733,152.542 522.566 C 164.187 522.371,180.514 520.164,182.108 518.570 C 182.999 517.679,184.817 516.949,186.146 516.949 C 189.524 516.949,208.590 507.147,212.821 503.235 C 214.746 501.456,217.415 499.999,218.753 499.999 C 222.139 499.997,253.829 466.868,260.548 456.305 C 262.161 453.770,263.884 451.314,264.377 450.847 C 267.876 447.539,274.576 437.036,274.576 434.859 C 274.576 433.398,275.148 432.197,275.847 432.190 C 276.547 432.183,277.952 430.467,278.971 428.377 C 281.939 422.290,287.214 412.789,288.138 411.866 C 289.303 410.703,291.915 405.053,299.108 388.136 C 302.478 380.212,306.957 370.010,309.062 365.465 L 312.891 357.202 317.015 365.889 C 319.283 370.667,321.722 374.576,322.434 374.576 C 323.146 374.576,323.729 375.956,323.729 377.642 C 323.729 379.328,324.849 382.189,326.217 383.998 C 327.586 385.808,328.730 388.623,328.760 390.254 C 328.789 391.886,329.576 393.220,330.508 393.220 C 331.441 393.220,332.203 394.652,332.203 396.403 C 332.203 398.153,333.347 400.534,334.746 401.695 C 336.144 402.855,337.288 405.500,337.288 407.572 C 337.288 409.644,338.814 412.720,340.678 414.407 C 342.542 416.094,344.068 419.170,344.068 421.242 C 344.068 423.313,345.212 425.958,346.610 427.119 C 348.008 428.279,349.153 430.700,349.153 432.499 C 349.153 435.944,355.878 449.599,358.051 450.565 C 358.750 450.876,359.322 452.547,359.322 454.279 C 359.322 456.010,360.024 457.861,360.881 458.391 C 364.226 460.458,371.206 475.234,370.254 478.233 C 369.579 480.360,370.110 481.356,371.920 481.356 C 374.510 481.356,375.301 483.237,374.664 487.882 C 374.491 489.141,375.163 489.668,376.158 489.053 C 377.152 488.438,377.966 488.874,377.966 490.021 C 377.966 496.554,383.061 497.961,388.458 492.920 L 393.744 487.981 390.092 483.042 C 388.084 480.326,386.441 476.992,386.441 475.633 C 386.441 472.856,381.433 461.478,376.291 452.569 C 374.416 449.321,372.879 445.507,372.875 444.094 C 372.872 442.681,371.475 439.237,369.772 436.441 C 368.069 433.644,366.150 429.258,365.509 426.695 C 364.867 424.131,363.594 422.034,362.680 422.034 C 361.765 422.034,361.017 420.895,361.017 419.503 C 361.017 415.049,355.209 403.390,352.990 403.390 C 351.812 403.390,350.847 401.864,350.847 400.000 C 350.847 398.136,350.085 396.610,349.153 396.610 C 348.220 396.610,347.458 394.703,347.458 392.373 C 347.458 390.042,345.996 386.674,344.209 384.887 C 342.422 383.100,341.414 381.185,341.968 380.631 C 342.522 380.077,341.402 376.771,339.479 373.286 C 337.556 369.801,335.425 365.042,334.744 362.712 C 334.062 360.381,331.644 355.991,329.370 352.956 C 327.096 349.921,325.725 346.646,326.323 345.678 C 326.921 344.710,326.201 342.072,324.722 339.816 C 321.684 335.179,321.355 331.803,323.524 327.519 C 326.540 321.564,330.877 306.583,329.876 305.582 C 329.308 305.014,329.726 303.485,330.806 302.184 C 331.885 300.884,333.358 296.619,334.078 292.706 C 334.799 288.794,336.671 281.398,338.238 276.271 C 339.805 271.144,341.317 263.898,341.597 260.169 C 341.878 256.441,342.548 251.292,343.087 248.729 C 343.627 246.165,344.420 242.352,344.851 240.254 C 347.154 229.043,350.800 198.932,350.081 197.059 C 349.623 195.864,349.934 193.081,350.773 190.874 C 351.612 188.668,352.796 180.857,353.404 173.516 C 354.012 166.175,354.802 156.737,355.160 152.542 C 356.993 131.050,357.090 124.639,355.678 118.353 C 354.668 113.857,354.741 110.757,355.890 109.373 C 358.157 106.642,356.927 60.212,354.417 53.755 C 353.407 51.159,352.698 48.489,352.840 47.823 C 353.449 44.963,350.065 36.403,346.780 32.497 C 339.754 24.141,333.347 18.644,330.634 18.644 C 329.115 18.644,326.656 17.223,325.169 15.487 C 320.765 10.343,280.413 4.817,274.512 8.550 M307.627 27.145 C 338.883 40.355,338.708 39.887,338.933 110.701 C 338.997 131.035,338.697 148.245,338.265 148.944 C 337.832 149.643,336.966 157.413,336.340 166.209 C 334.497 192.082,334.320 193.860,333.132 198.407 C 332.508 200.794,331.762 206.896,331.474 211.967 C 331.186 217.038,330.798 221.186,330.612 221.186 C 330.427 221.186,329.984 223.475,329.629 226.271 C 328.875 232.207,325.517 251.494,324.170 257.627 C 323.658 259.958,323.073 263.008,322.870 264.407 C 319.889 284.971,308.475 317.853,308.475 305.879 C 308.475 304.451,307.416 302.877,306.122 302.381 C 304.094 301.602,301.500 294.796,300.960 288.835 C 300.868 287.821,299.471 285.669,297.854 284.053 C 296.238 282.436,294.915 279.262,294.915 276.998 C 294.915 274.734,294.153 272.881,293.220 272.881 C 292.288 272.881,291.525 271.356,291.525 269.492 C 291.525 267.608,290.395 266.102,288.983 266.102 C 287.401 266.102,286.441 264.501,286.441 261.864 C 286.441 259.534,285.678 257.627,284.746 257.627 C 283.814 257.627,283.051 256.473,283.051 255.062 C 283.051 252.481,282.473 251.080,277.361 241.264 C 275.829 238.323,274.576 233.938,274.576 231.518 C 274.576 229.098,273.814 227.119,272.881 227.119 C 271.949 227.119,271.186 225.975,271.186 224.576 C 271.186 223.178,270.424 222.034,269.492 222.034 C 268.559 222.034,267.797 220.273,267.797 218.121 C 267.797 215.968,266.677 212.727,265.308 210.917 C 263.939 209.108,262.795 206.282,262.766 204.638 C 262.736 202.994,262.051 200.325,261.244 198.706 C 258.442 193.087,256.044 184.241,256.933 182.802 C 257.425 182.007,257.101 181.356,256.214 181.356 C 254.147 181.356,252.566 177.186,251.395 168.645 C 250.884 164.916,249.753 160.514,248.883 158.863 C 248.013 157.213,247.763 155.115,248.327 154.202 C 248.891 153.289,248.775 151.608,248.069 150.466 C 246.613 148.109,245.588 136.105,245.581 121.325 C 245.579 115.808,244.778 109.801,243.802 107.977 C 242.520 105.582,242.623 103.547,244.173 100.650 C 245.774 97.659,245.851 95.610,244.478 92.595 C 243.140 89.660,243.153 88.033,244.525 86.662 C 245.564 85.623,246.608 82.669,246.846 80.098 C 249.177 54.841,256.675 36.831,269.448 25.805 C 272.620 23.066,300.273 24.037,307.627 27.145 M118.058 307.086 C 120.453 308.964,119.894 324.374,117.190 331.043 C 116.125 333.667,115.252 336.336,115.249 336.975 C 115.236 339.797,102.812 362.447,97.892 368.618 C 94.907 372.361,91.682 376.430,90.724 377.660 C 89.103 379.742,86.996 381.751,76.958 390.783 C 74.822 392.705,70.243 395.756,66.782 397.562 C 63.321 399.369,58.150 402.945,55.290 405.508 C 47.896 412.138,45.100 411.692,46.522 404.109 C 47.254 400.210,46.907 397.141,45.549 395.505 C 44.139 393.807,44.020 392.583,45.190 391.820 C 46.154 391.192,47.416 384.958,47.995 377.966 C 49.528 359.457,58.357 334.491,66.854 324.635 C 69.237 321.871,71.186 319.114,71.186 318.510 C 71.186 310.348,110.117 300.860,118.058 307.086 " stroke="none" fill="white" fill-rule="evenodd"></path></g></svg>