<svg id="svg" xmlns="http://www.w3.org/2000/svg" xmlns:xlink="http://www.w3.org/1999/xlink" width="400" height="813.0081300813008" viewBox="0, 0, 400,813.0081300813008"><g id="svgg"><path id="path0" d="M303.708 5.777 C 303.372 6.114,298.741 6.838,293.418 7.386 C 288.095 7.935,282.119 9.424,280.139 10.696 C 278.158 11.968,275.551 13.008,274.346 13.008 C 273.141 13.008,269.127 14.472,265.425 16.260 C 261.723 18.049,257.927 19.512,256.989 19.512 C 256.052 19.512,255.285 20.155,255.285 20.941 C 255.285 21.727,253.089 23.279,250.407 24.390 C 247.724 25.502,245.528 27.054,245.528 27.840 C 245.528 28.625,244.889 29.268,244.107 29.268 C 241.209 29.268,221.489 47.854,210.569 60.876 C 206.992 65.142,203.150 69.602,202.033 70.786 C 200.915 71.970,200.000 73.747,200.000 74.735 C 200.000 75.724,197.805 78.678,195.122 81.301 C 192.439 83.923,190.190 87.009,190.125 88.157 C 190.060 89.305,188.595 92.439,186.871 95.122 C 181.302 103.785,174.098 119.194,174.962 120.592 C 175.424 121.340,174.844 121.957,173.673 121.965 C 172.499 121.973,170.183 126.347,168.508 131.721 C 166.837 137.079,164.747 141.463,163.862 141.463 C 162.977 141.463,162.649 142.494,163.133 143.754 C 163.616 145.014,162.931 149.953,161.611 154.730 C 160.291 159.506,158.875 165.976,158.465 169.106 C 158.055 172.236,157.021 178.089,156.166 182.114 C 149.571 213.183,148.845 286.468,154.882 311.731 C 156.210 317.289,156.975 322.157,156.583 322.550 C 156.191 322.942,157.403 326.437,159.278 330.317 C 161.240 334.378,161.991 337.602,161.049 337.916 C 160.104 338.231,160.775 341.135,162.632 344.776 C 164.404 348.249,165.854 352.484,165.854 354.187 C 165.854 355.891,167.400 359.251,169.291 361.655 C 171.182 364.058,172.307 366.446,171.792 366.961 C 171.277 367.476,173.389 370.988,176.485 374.766 C 179.581 378.545,182.114 383.178,182.114 385.063 C 182.114 386.949,183.448 389.800,185.078 391.400 C 188.686 394.941,197.527 409.405,199.086 414.317 C 199.709 416.280,201.267 417.886,202.549 417.886 C 203.830 417.886,204.878 418.605,204.878 419.484 C 204.878 420.362,208.171 424.518,212.195 428.718 C 216.220 432.918,219.512 437.260,219.512 438.367 C 219.512 439.474,220.087 440.623,220.790 440.921 C 221.493 441.220,223.738 443.841,225.779 446.748 C 227.820 449.654,230.537 452.033,231.818 452.033 C 233.099 452.033,234.146 452.769,234.146 453.669 C 234.146 455.645,256.135 478.049,258.074 478.049 C 258.825 478.049,260.736 479.563,262.321 481.413 C 263.905 483.264,267.260 485.496,269.775 486.372 C 272.290 487.249,275.198 489.831,276.236 492.110 C 277.419 494.705,279.005 495.916,280.481 495.350 C 281.783 494.850,283.841 495.878,285.080 497.646 C 286.313 499.407,290.907 502.742,295.287 505.058 C 312.786 514.306,322.110 518.699,324.242 518.699 C 325.474 518.699,326.903 519.797,327.417 521.138 C 327.970 522.578,330.412 523.577,333.378 523.577 C 336.142 523.577,337.982 524.258,337.468 525.091 C 336.953 525.923,337.276 527.064,338.185 527.626 C 340.214 528.880,340.387 539.306,338.399 540.535 C 337.608 541.024,336.577 543.445,336.109 545.915 C 334.553 554.125,330.069 571.498,328.656 574.797 C 327.889 576.585,326.428 581.341,325.409 585.366 C 320.023 606.632,318.406 612.486,317.095 615.447 C 316.303 617.236,313.732 625.650,311.382 634.146 C 307.097 649.638,306.612 651.049,301.792 662.034 C 300.359 665.300,299.187 669.141,299.187 670.571 C 299.187 672.001,298.513 673.171,297.690 673.171 C 296.867 673.171,295.682 675.499,295.057 678.345 C 294.432 681.191,292.544 685.970,290.863 688.964 C 289.181 691.958,287.805 695.736,287.805 697.358 C 287.805 698.981,286.341 701.633,284.553 703.252 C 282.764 704.871,281.301 707.443,281.301 708.968 C 281.301 710.493,279.472 714.437,277.236 717.731 C 275.000 721.026,273.171 724.427,273.171 725.290 C 273.171 726.152,270.976 729.888,268.293 733.591 C 265.610 737.295,263.415 741.108,263.415 742.064 C 263.415 743.708,259.172 748.513,245.122 762.783 C 241.768 766.189,239.010 769.554,238.992 770.260 C 238.974 770.967,235.316 773.708,230.862 776.352 C 226.408 778.997,222.764 781.740,222.764 782.450 C 222.764 783.159,221.597 783.740,220.170 783.740 C 218.743 783.740,215.633 785.084,213.259 786.728 C 203.112 793.753,164.846 796.991,155.256 791.637 C 154.377 791.147,150.183 789.806,145.935 788.657 C 141.687 787.509,138.211 785.933,138.211 785.155 C 138.211 784.376,136.773 783.740,135.015 783.740 C 131.366 783.740,120.325 778.809,120.325 777.180 C 120.325 776.586,117.033 774.742,113.008 773.082 C 108.984 771.423,105.691 769.483,105.691 768.772 C 105.691 768.061,104.593 767.480,103.252 767.480 C 101.911 767.480,100.813 766.782,100.813 765.930 C 100.813 765.078,98.069 763.082,94.715 761.495 C 91.362 759.908,87.071 756.947,85.179 754.915 C 83.288 752.882,80.996 751.220,80.084 751.220 C 79.173 751.220,78.046 749.760,77.580 747.976 C 77.113 746.192,75.382 744.245,73.732 743.650 C 70.070 742.330,65.041 737.340,65.041 735.027 C 65.041 734.096,63.943 733.333,62.602 733.333 C 61.260 733.333,60.051 732.419,59.915 731.301 C 59.779 730.183,59.561 728.537,59.432 727.642 C 58.999 724.647,54.523 718.699,52.701 718.699 C 51.711 718.699,49.590 715.792,47.987 712.239 C 46.385 708.687,44.445 706.169,43.675 706.644 C 42.906 707.120,42.276 706.092,42.276 704.360 C 42.276 702.628,41.179 700.300,39.837 699.187 C 38.496 698.074,37.398 695.197,37.398 692.795 C 37.398 690.392,36.324 687.006,35.011 685.270 C 33.698 683.534,32.600 680.833,32.572 679.268 C 32.544 677.703,31.745 676.423,30.798 676.423 C 29.851 676.423,29.548 675.659,30.125 674.726 C 30.702 673.792,30.448 672.146,29.560 671.067 C 28.169 669.375,27.481 666.182,25.460 652.033 C 25.269 650.691,24.521 648.647,23.798 647.490 C 23.070 646.324,23.275 644.434,24.256 643.251 C 26.103 641.025,25.012 631.467,22.550 628.306 C 21.789 627.329,21.613 626.084,22.158 625.538 C 26.616 621.080,21.062 604.699,16.434 608.655 C 14.997 609.883,12.541 611.342,10.976 611.897 C 9.411 612.452,8.069 614.210,7.995 615.803 C 7.920 617.396,7.645 620.528,7.383 622.764 C 6.248 632.444,11.019 672.295,14.197 679.675 C 14.774 681.016,15.310 683.211,15.387 684.553 C 15.465 685.894,17.088 690.285,18.994 694.309 C 20.901 698.333,24.322 705.842,26.597 710.996 C 28.872 716.149,31.867 720.801,33.253 721.332 C 34.639 721.864,35.772 723.585,35.772 725.155 C 35.772 726.726,37.439 729.758,39.475 731.892 C 41.511 734.026,45.332 738.699,47.965 742.276 C 53.463 749.747,63.026 759.196,64.050 758.172 C 64.432 757.791,65.203 758.926,65.765 760.696 C 66.327 762.466,69.176 765.048,72.097 766.434 C 75.018 767.820,78.763 770.451,80.419 772.282 C 82.076 774.112,84.781 775.610,86.431 775.610 C 88.081 775.610,89.431 776.244,89.431 777.020 C 89.431 778.836,101.717 786.992,104.452 786.992 C 105.598 786.992,107.391 788.363,108.438 790.039 C 109.484 791.715,112.404 793.602,114.926 794.232 C 117.449 794.862,124.268 797.589,130.081 800.292 C 141.986 805.827,168.744 811.129,181.301 810.441 C 188.906 810.024,191.327 809.655,202.846 807.162 C 205.305 806.630,208.122 806.054,209.105 805.883 C 210.089 805.712,212.650 804.424,214.796 803.020 C 216.943 801.617,220.528 799.911,222.764 799.229 C 225.000 798.547,227.927 797.067,229.268 795.939 C 230.610 794.811,234.109 792.671,237.045 791.184 C 239.981 789.696,241.950 787.779,241.421 786.923 C 240.891 786.066,241.887 785.366,243.633 785.366 C 245.378 785.366,247.228 784.268,247.742 782.927 C 248.257 781.585,249.799 780.488,251.168 780.488 C 252.538 780.488,253.659 779.859,253.659 779.090 C 253.659 778.321,256.212 775.212,259.332 772.180 C 262.453 769.147,265.014 765.752,265.023 764.634 C 265.033 763.516,265.955 762.575,267.073 762.542 C 269.306 762.477,279.119 747.975,278.403 745.798 C 278.158 745.052,279.803 742.990,282.059 741.216 C 285.770 738.297,302.439 706.727,302.439 702.618 C 302.439 701.680,303.890 698.329,305.663 695.171 C 307.437 692.014,308.534 689.431,308.102 689.431 C 307.670 689.431,308.780 687.967,310.569 686.179 C 312.409 684.339,313.821 680.759,313.821 677.933 C 313.821 675.186,314.919 671.841,316.260 670.499 C 317.602 669.158,318.699 666.514,318.699 664.625 C 318.699 662.735,320.187 658.117,322.004 654.362 C 323.822 650.606,325.586 645.348,325.925 642.676 C 326.263 640.005,327.270 636.444,328.163 634.763 C 332.117 627.322,334.663 620.348,333.885 619.090 C 333.421 618.338,334.239 615.197,335.703 612.111 C 337.168 609.024,338.676 604.488,339.055 602.030 C 339.775 597.351,342.059 588.491,345.027 578.862 C 345.991 575.732,346.811 570.821,346.848 567.950 C 346.885 565.079,347.884 562.358,349.068 561.903 C 350.251 561.449,351.245 558.677,351.277 555.742 C 351.309 552.808,352.309 548.649,353.499 546.501 C 354.690 544.352,355.326 541.305,354.914 539.728 C 354.435 537.898,355.704 535.853,358.425 534.070 C 361.540 532.029,362.408 530.408,361.656 528.037 C 360.974 525.888,361.234 525.171,362.427 525.909 C 363.433 526.530,364.228 525.962,364.228 524.622 C 364.228 523.302,363.375 521.938,362.333 521.591 C 360.106 520.848,359.281 512.163,361.198 509.637 C 362.682 507.682,364.826 494.246,364.746 487.398 C 364.718 484.939,365.364 482.927,366.183 482.927 C 367.002 482.927,367.302 482.329,366.850 481.598 C 366.399 480.867,367.063 477.269,368.326 473.602 C 369.589 469.936,371.003 462.825,371.468 457.801 C 372.501 446.639,375.503 427.505,376.465 425.947 C 377.817 423.761,380.234 399.695,381.195 378.862 C 381.422 373.943,382.219 368.089,382.967 365.854 C 384.413 361.529,384.825 356.513,385.442 335.772 C 385.699 327.104,386.631 321.835,388.233 319.979 C 389.742 318.232,390.169 316.112,389.378 314.288 C 387.899 310.878,388.390 305.229,390.266 304.059 C 390.989 303.608,390.980 299.960,390.247 295.951 C 389.514 291.943,389.476 287.556,390.163 286.202 C 392.570 281.457,393.401 273.132,391.870 269.105 C 390.850 266.422,390.926 263.521,392.095 260.569 C 394.459 254.599,395.549 218.644,395.459 149.593 C 395.453 144.675,395.557 129.309,395.691 115.447 C 395.857 98.341,395.308 89.199,393.985 86.992 C 392.912 85.203,392.269 82.276,392.556 80.488 C 392.843 78.699,392.378 76.353,391.521 75.274 C 390.665 74.196,390.436 72.549,391.013 71.616 C 391.590 70.682,391.549 69.089,390.923 68.076 C 390.296 67.062,389.632 63.732,389.446 60.677 C 389.261 57.622,387.535 52.993,385.611 50.391 C 383.688 47.789,382.114 44.716,382.114 43.561 C 382.114 42.407,379.261 38.341,375.774 34.526 C 372.287 30.711,369.014 26.497,368.502 25.162 C 367.989 23.827,366.987 22.924,366.274 23.156 C 365.561 23.388,363.208 21.931,361.044 19.919 C 358.881 17.907,356.240 16.260,355.177 16.260 C 354.114 16.260,352.305 15.129,351.158 13.747 C 350.011 12.365,348.116 11.601,346.946 12.050 C 345.776 12.499,344.399 12.186,343.886 11.355 C 341.780 7.948,306.443 3.042,303.708 5.777 M325.231 22.627 C 335.374 24.847,351.130 32.022,352.246 34.929 C 352.753 36.251,355.657 38.870,358.698 40.750 C 361.739 42.630,364.228 45.510,364.228 47.152 C 364.228 48.793,364.776 50.379,365.447 50.678 C 368.859 52.194,374.480 66.295,374.377 73.082 C 374.316 77.116,374.997 81.783,375.891 83.452 C 377.211 85.920,378.056 99.727,379.189 137.398 C 379.570 150.040,376.140 255.029,374.807 271.545 C 374.266 278.252,373.479 288.496,373.058 294.309 C 372.637 300.122,371.902 310.000,371.425 316.260 C 370.948 322.520,370.223 332.398,369.815 338.211 C 369.011 349.663,368.166 356.690,366.981 361.789 C 366.566 363.577,365.783 369.065,365.242 373.984 C 364.701 378.902,363.501 389.792,362.576 398.184 C 361.652 406.575,360.227 416.413,359.410 420.047 C 358.594 423.681,358.225 427.138,358.591 427.730 C 358.956 428.321,358.586 431.139,357.768 433.990 C 356.950 436.842,355.838 444.446,355.296 450.888 C 354.753 457.331,353.281 466.101,352.023 470.379 C 350.766 474.657,350.152 479.239,350.660 480.562 C 351.168 481.886,350.716 484.014,349.655 485.291 C 348.595 486.569,346.987 492.962,346.082 499.498 C 345.178 506.034,344.154 511.667,343.809 512.014 C 342.885 512.944,312.661 498.004,311.428 496.008 C 310.850 495.074,309.296 494.309,307.975 494.309 C 306.653 494.309,300.778 490.467,294.919 485.772 C 289.060 481.077,283.947 477.449,283.556 477.710 C 282.042 478.723,273.365 472.462,272.686 469.867 C 272.292 468.360,269.679 466.113,266.879 464.874 C 264.079 463.635,261.789 462.115,261.789 461.496 C 261.789 460.357,254.959 452.569,239.403 435.968 C 234.693 430.942,228.474 423.004,225.582 418.329 C 222.691 413.653,219.609 410.051,218.733 410.323 C 217.858 410.595,215.369 407.103,213.202 402.563 C 211.036 398.023,207.911 393.353,206.258 392.184 C 204.605 391.016,203.252 388.448,203.252 386.478 C 203.252 384.508,201.760 381.964,199.937 380.826 C 198.114 379.687,197.006 378.134,197.476 377.374 C 197.945 376.614,196.900 374.175,195.153 371.954 C 193.406 369.732,192.440 367.451,193.007 366.884 C 193.574 366.317,192.818 365.854,191.328 365.854 C 189.716 365.854,188.618 364.556,188.618 362.651 C 188.618 360.890,187.154 356.843,185.366 353.659 C 183.577 350.474,182.091 346.610,182.062 345.072 C 182.034 343.535,181.014 340.962,179.795 339.355 C 178.577 337.749,177.910 335.170,178.315 333.624 C 178.719 332.079,177.914 328.637,176.527 325.976 C 175.139 323.315,173.999 319.544,173.994 317.596 C 173.988 315.648,172.910 312.979,171.597 311.667 C 170.284 310.354,169.223 307.192,169.239 304.640 C 169.266 300.211,167.843 278.758,167.124 272.764 C 166.936 271.199,166.226 269.919,165.545 269.919 C 164.865 269.919,165.052 267.963,165.960 265.573 C 166.869 263.183,167.291 260.389,166.897 259.364 C 166.504 258.340,166.745 254.426,167.432 250.667 C 168.120 246.906,168.034 243.432,167.241 242.942 C 166.449 242.452,166.343 241.188,167.006 240.132 C 167.669 239.075,168.005 236.956,167.753 235.422 C 167.501 233.887,168.050 228.544,168.974 223.548 C 170.231 216.743,170.157 213.669,168.675 211.297 C 167.107 208.787,167.140 207.422,168.830 204.715 C 170.175 202.562,170.622 198.808,170.040 194.553 C 169.379 189.722,169.545 188.729,170.623 191.057 C 171.857 193.722,172.150 193.170,172.243 187.994 C 172.306 184.520,173.039 179.032,173.872 175.798 C 174.706 172.565,176.954 163.333,178.869 155.285 C 182.347 140.670,187.055 128.055,194.523 113.344 C 196.699 109.058,198.046 104.850,197.517 103.995 C 196.989 103.139,197.582 102.439,198.835 102.439 C 200.088 102.439,202.510 99.765,204.215 96.497 C 205.921 93.229,208.780 88.937,210.569 86.959 C 212.358 84.981,215.991 80.314,218.644 76.588 C 224.703 68.078,243.771 49.311,254.472 41.327 C 258.943 37.991,262.967 34.827,263.415 34.297 C 263.862 33.767,265.292 33.101,266.592 32.816 C 267.892 32.532,273.559 30.079,279.185 27.366 C 288.703 22.775,308.461 19.038,315.447 20.506 C 316.789 20.788,321.191 21.742,325.231 22.627 " stroke="none" fill="white" fill-rule="evenodd"></path></g></svg>